<mxfile host="Electron" agent="Mozilla/5.0 (Windows NT 10.0; Win64; x64) AppleWebKit/537.36 (KHTML, like Gecko) draw.io/24.7.5 Chrome/126.0.6478.183 Electron/31.3.0 Safari/537.36" version="24.7.5">
  <diagram name="第 1 页" id="gg999IvEs695PcQWZ37R">
    <mxGraphModel dx="710" dy="639" grid="1" gridSize="10" guides="1" tooltips="1" connect="1" arrows="1" fold="1" page="1" pageScale="1" pageWidth="827" pageHeight="1169" math="0" shadow="0">
      <root>
        <mxCell id="0" />
        <mxCell id="1" parent="0" />
        <mxCell id="yZVFHKXi4NmOl1lv1mpV-7" value="" style="rounded=0;whiteSpace=wrap;html=1;" vertex="1" parent="1">
          <mxGeometry x="330" y="160" width="110" height="40" as="geometry" />
        </mxCell>
        <mxCell id="yZVFHKXi4NmOl1lv1mpV-8" value="" style="endArrow=none;html=1;rounded=0;exitX=0.5;exitY=1;exitDx=0;exitDy=0;entryX=0.5;entryY=0;entryDx=0;entryDy=0;" edge="1" parent="1" source="yZVFHKXi4NmOl1lv1mpV-7" target="yZVFHKXi4NmOl1lv1mpV-7">
          <mxGeometry width="50" height="50" relative="1" as="geometry">
            <mxPoint x="502" y="22" as="sourcePoint" />
            <mxPoint x="552" y="-28" as="targetPoint" />
          </mxGeometry>
        </mxCell>
        <mxCell id="yZVFHKXi4NmOl1lv1mpV-9" value="root&lt;div&gt;bucket&lt;/div&gt;" style="text;html=1;align=center;verticalAlign=middle;whiteSpace=wrap;rounded=0;" vertex="1" parent="1">
          <mxGeometry x="330" y="169" width="60" height="30" as="geometry" />
        </mxCell>
        <mxCell id="yZVFHKXi4NmOl1lv1mpV-10" value="freelist pgid" style="text;html=1;align=center;verticalAlign=middle;whiteSpace=wrap;rounded=0;" vertex="1" parent="1">
          <mxGeometry x="383" y="167" width="60" height="30" as="geometry" />
        </mxCell>
        <mxCell id="yZVFHKXi4NmOl1lv1mpV-13" value="freelist" style="swimlane;fontStyle=0;childLayout=stackLayout;horizontal=1;startSize=26;fillColor=none;horizontalStack=0;resizeParent=1;resizeParentMax=0;resizeLast=0;collapsible=1;marginBottom=0;whiteSpace=wrap;html=1;" vertex="1" parent="1">
          <mxGeometry x="650" y="16" width="160" height="116" as="geometry" />
        </mxCell>
        <mxCell id="yZVFHKXi4NmOl1lv1mpV-14" value="+ ids: []pgid" style="text;strokeColor=none;fillColor=none;align=left;verticalAlign=top;spacingLeft=4;spacingRight=4;overflow=hidden;rotatable=0;points=[[0,0.5],[1,0.5]];portConstraint=eastwest;whiteSpace=wrap;html=1;" vertex="1" parent="yZVFHKXi4NmOl1lv1mpV-13">
          <mxGeometry y="26" width="160" height="30" as="geometry" />
        </mxCell>
        <mxCell id="yZVFHKXi4NmOl1lv1mpV-15" value="+ pending: map[txid][]pgid" style="text;strokeColor=none;fillColor=none;align=left;verticalAlign=top;spacingLeft=4;spacingRight=4;overflow=hidden;rotatable=0;points=[[0,0.5],[1,0.5]];portConstraint=eastwest;whiteSpace=wrap;html=1;" vertex="1" parent="yZVFHKXi4NmOl1lv1mpV-13">
          <mxGeometry y="56" width="160" height="30" as="geometry" />
        </mxCell>
        <mxCell id="yZVFHKXi4NmOl1lv1mpV-16" value="+ cache: map[pgid]bool" style="text;strokeColor=none;fillColor=none;align=left;verticalAlign=top;spacingLeft=4;spacingRight=4;overflow=hidden;rotatable=0;points=[[0,0.5],[1,0.5]];portConstraint=eastwest;whiteSpace=wrap;html=1;" vertex="1" parent="yZVFHKXi4NmOl1lv1mpV-13">
          <mxGeometry y="86" width="160" height="30" as="geometry" />
        </mxCell>
        <mxCell id="yZVFHKXi4NmOl1lv1mpV-18" value="" style="rounded=0;whiteSpace=wrap;html=1;" vertex="1" parent="1">
          <mxGeometry x="300" y="260" width="120" height="60" as="geometry" />
        </mxCell>
        <mxCell id="yZVFHKXi4NmOl1lv1mpV-1" value="" style="rounded=0;whiteSpace=wrap;html=1;container=0;" vertex="1" parent="1">
          <mxGeometry x="260" y="20" width="280" height="110" as="geometry" />
        </mxCell>
        <mxCell id="yZVFHKXi4NmOl1lv1mpV-2" value="freelist" style="rounded=0;whiteSpace=wrap;html=1;" vertex="1" parent="1">
          <mxGeometry x="410" y="80" width="120" height="40" as="geometry" />
        </mxCell>
        <mxCell id="yZVFHKXi4NmOl1lv1mpV-3" value="meta" style="rounded=0;whiteSpace=wrap;html=1;" vertex="1" parent="1">
          <mxGeometry x="270" y="80" width="120" height="40" as="geometry" />
        </mxCell>
        <mxCell id="yZVFHKXi4NmOl1lv1mpV-4" value="" style="endArrow=none;html=1;rounded=0;entryX=1;entryY=0.5;entryDx=0;entryDy=0;exitX=0;exitY=0.5;exitDx=0;exitDy=0;" edge="1" parent="1">
          <mxGeometry width="50" height="50" relative="1" as="geometry">
            <mxPoint x="260" y="71" as="sourcePoint" />
            <mxPoint x="540" y="71" as="targetPoint" />
          </mxGeometry>
        </mxCell>
        <mxCell id="yZVFHKXi4NmOl1lv1mpV-6" value="DB" style="text;html=1;align=center;verticalAlign=middle;whiteSpace=wrap;rounded=0;" vertex="1" parent="1">
          <mxGeometry x="370" y="30" width="60" height="30" as="geometry" />
        </mxCell>
        <mxCell id="yZVFHKXi4NmOl1lv1mpV-12" value="" style="curved=1;endArrow=classic;html=1;rounded=0;exitX=0.5;exitY=0.75;exitDx=0;exitDy=0;exitPerimeter=0;entryX=0.5;entryY=0;entryDx=0;entryDy=0;dashed=1;dashPattern=1 2;" edge="1" parent="1" source="yZVFHKXi4NmOl1lv1mpV-3" target="yZVFHKXi4NmOl1lv1mpV-9">
          <mxGeometry width="50" height="50" relative="1" as="geometry">
            <mxPoint x="403" y="92" as="sourcePoint" />
            <mxPoint x="453" y="42" as="targetPoint" />
            <Array as="points">
              <mxPoint x="330" y="140" />
              <mxPoint x="340" y="150" />
            </Array>
          </mxGeometry>
        </mxCell>
        <mxCell id="yZVFHKXi4NmOl1lv1mpV-11" value="" style="curved=1;endArrow=classic;html=1;rounded=0;exitX=0.783;exitY=0.5;exitDx=0;exitDy=0;exitPerimeter=0;entryX=0.417;entryY=0.75;entryDx=0;entryDy=0;entryPerimeter=0;dashed=1;dashPattern=1 1;" edge="1" parent="1" source="yZVFHKXi4NmOl1lv1mpV-10" target="yZVFHKXi4NmOl1lv1mpV-2">
          <mxGeometry width="50" height="50" relative="1" as="geometry">
            <mxPoint x="413" y="214" as="sourcePoint" />
            <mxPoint x="428" y="144" as="targetPoint" />
            <Array as="points">
              <mxPoint x="460" y="170" />
              <mxPoint x="480" y="140" />
            </Array>
          </mxGeometry>
        </mxCell>
        <mxCell id="yZVFHKXi4NmOl1lv1mpV-20" value="" style="endArrow=none;html=1;rounded=0;exitX=0;exitY=0.5;exitDx=0;exitDy=0;entryX=1;entryY=0.5;entryDx=0;entryDy=0;" edge="1" parent="1" source="yZVFHKXi4NmOl1lv1mpV-18" target="yZVFHKXi4NmOl1lv1mpV-18">
          <mxGeometry width="50" height="50" relative="1" as="geometry">
            <mxPoint x="529" y="330" as="sourcePoint" />
            <mxPoint x="579" y="280" as="targetPoint" />
          </mxGeometry>
        </mxCell>
        <mxCell id="yZVFHKXi4NmOl1lv1mpV-21" value="root: pgid" style="text;html=1;align=center;verticalAlign=middle;whiteSpace=wrap;rounded=0;" vertex="1" parent="1">
          <mxGeometry x="310" y="290" width="90" height="30" as="geometry" />
        </mxCell>
        <mxCell id="yZVFHKXi4NmOl1lv1mpV-22" value="Bucket" style="text;html=1;align=center;verticalAlign=middle;whiteSpace=wrap;rounded=0;" vertex="1" parent="1">
          <mxGeometry x="330" y="260" width="60" height="30" as="geometry" />
        </mxCell>
        <mxCell id="yZVFHKXi4NmOl1lv1mpV-23" value="" style="curved=1;endArrow=classic;html=1;rounded=0;entryX=0.5;entryY=0;entryDx=0;entryDy=0;exitX=0.199;exitY=1.01;exitDx=0;exitDy=0;exitPerimeter=0;dashed=1;dashPattern=1 2;" edge="1" parent="1" source="yZVFHKXi4NmOl1lv1mpV-7" target="yZVFHKXi4NmOl1lv1mpV-22">
          <mxGeometry width="50" height="50" relative="1" as="geometry">
            <mxPoint x="189" y="240" as="sourcePoint" />
            <mxPoint x="239" y="190" as="targetPoint" />
            <Array as="points">
              <mxPoint x="340" y="220" />
              <mxPoint x="340" y="250" />
            </Array>
          </mxGeometry>
        </mxCell>
        <mxCell id="yZVFHKXi4NmOl1lv1mpV-30" value="" style="curved=1;endArrow=classic;html=1;rounded=0;entryX=0.5;entryY=0;entryDx=0;entryDy=0;exitX=0.199;exitY=1.01;exitDx=0;exitDy=0;exitPerimeter=0;" edge="1" parent="1">
          <mxGeometry width="50" height="50" relative="1" as="geometry">
            <mxPoint x="354" y="310" as="sourcePoint" />
            <mxPoint x="356" y="370" as="targetPoint" />
            <Array as="points">
              <mxPoint x="340" y="330" />
              <mxPoint x="340" y="360" />
            </Array>
          </mxGeometry>
        </mxCell>
        <mxCell id="yZVFHKXi4NmOl1lv1mpV-77" value="" style="rounded=0;whiteSpace=wrap;html=1;" vertex="1" parent="1">
          <mxGeometry x="240" y="370" width="240" height="80" as="geometry" />
        </mxCell>
        <mxCell id="yZVFHKXi4NmOl1lv1mpV-78" value="" style="endArrow=none;html=1;rounded=0;exitX=0;exitY=0.5;exitDx=0;exitDy=0;entryX=1;entryY=0.5;entryDx=0;entryDy=0;" edge="1" parent="1" source="yZVFHKXi4NmOl1lv1mpV-77" target="yZVFHKXi4NmOl1lv1mpV-77">
          <mxGeometry width="50" height="50" relative="1" as="geometry">
            <mxPoint x="382" y="610" as="sourcePoint" />
            <mxPoint x="432" y="560" as="targetPoint" />
          </mxGeometry>
        </mxCell>
        <mxCell id="yZVFHKXi4NmOl1lv1mpV-80" value="rootNode: Branch Page" style="text;html=1;align=center;verticalAlign=middle;whiteSpace=wrap;rounded=0;" vertex="1" parent="1">
          <mxGeometry x="300" y="375" width="130" height="30" as="geometry" />
        </mxCell>
        <mxCell id="yZVFHKXi4NmOl1lv1mpV-81" value="" style="endArrow=none;html=1;rounded=0;" edge="1" parent="1">
          <mxGeometry width="50" height="50" relative="1" as="geometry">
            <mxPoint x="269" y="449" as="sourcePoint" />
            <mxPoint x="269" y="410" as="targetPoint" />
          </mxGeometry>
        </mxCell>
        <mxCell id="yZVFHKXi4NmOl1lv1mpV-82" value="pgid" style="text;html=1;align=center;verticalAlign=middle;whiteSpace=wrap;rounded=0;" vertex="1" parent="1">
          <mxGeometry x="245" y="420" width="20" height="20" as="geometry" />
        </mxCell>
        <mxCell id="yZVFHKXi4NmOl1lv1mpV-83" value="flags=1" style="text;html=1;align=center;verticalAlign=middle;whiteSpace=wrap;rounded=0;" vertex="1" parent="1">
          <mxGeometry x="272" y="425" width="40" height="10" as="geometry" />
        </mxCell>
        <mxCell id="yZVFHKXi4NmOl1lv1mpV-84" value="" style="endArrow=none;html=1;rounded=0;exitX=0.313;exitY=1.008;exitDx=0;exitDy=0;exitPerimeter=0;" edge="1" parent="1" source="yZVFHKXi4NmOl1lv1mpV-77">
          <mxGeometry width="50" height="50" relative="1" as="geometry">
            <mxPoint x="349" y="410" as="sourcePoint" />
            <mxPoint x="314" y="410" as="targetPoint" />
          </mxGeometry>
        </mxCell>
        <mxCell id="yZVFHKXi4NmOl1lv1mpV-85" value="count" style="text;html=1;align=center;verticalAlign=middle;whiteSpace=wrap;rounded=0;" vertex="1" parent="1">
          <mxGeometry x="317" y="424" width="30" height="10" as="geometry" />
        </mxCell>
        <mxCell id="yZVFHKXi4NmOl1lv1mpV-86" value="" style="endArrow=none;html=1;rounded=0;exitX=0.46;exitY=0.989;exitDx=0;exitDy=0;exitPerimeter=0;" edge="1" parent="1" source="yZVFHKXi4NmOl1lv1mpV-77">
          <mxGeometry width="50" height="50" relative="1" as="geometry">
            <mxPoint x="369" y="530" as="sourcePoint" />
            <mxPoint x="349" y="410" as="targetPoint" />
          </mxGeometry>
        </mxCell>
        <mxCell id="yZVFHKXi4NmOl1lv1mpV-87" value="overflow" style="text;html=1;align=center;verticalAlign=middle;whiteSpace=wrap;rounded=0;" vertex="1" parent="1">
          <mxGeometry x="356" y="424" width="50" height="10" as="geometry" />
        </mxCell>
        <mxCell id="yZVFHKXi4NmOl1lv1mpV-88" value="" style="endArrow=none;html=1;rounded=0;exitX=0.707;exitY=1.006;exitDx=0;exitDy=0;exitPerimeter=0;" edge="1" parent="1" source="yZVFHKXi4NmOl1lv1mpV-77">
          <mxGeometry width="50" height="50" relative="1" as="geometry">
            <mxPoint x="369" y="510" as="sourcePoint" />
            <mxPoint x="409" y="410" as="targetPoint" />
          </mxGeometry>
        </mxCell>
        <mxCell id="yZVFHKXi4NmOl1lv1mpV-89" value="ptr" style="text;html=1;align=center;verticalAlign=middle;whiteSpace=wrap;rounded=0;" vertex="1" parent="1">
          <mxGeometry x="410" y="420" width="30" height="20" as="geometry" />
        </mxCell>
        <mxCell id="yZVFHKXi4NmOl1lv1mpV-104" value="" style="group" vertex="1" connectable="0" parent="1">
          <mxGeometry x="280" y="488" width="350" height="30" as="geometry" />
        </mxCell>
        <mxCell id="yZVFHKXi4NmOl1lv1mpV-90" value="" style="rounded=0;whiteSpace=wrap;html=1;" vertex="1" parent="yZVFHKXi4NmOl1lv1mpV-104">
          <mxGeometry width="350" height="30" as="geometry" />
        </mxCell>
        <mxCell id="yZVFHKXi4NmOl1lv1mpV-91" value="branchPageElement" style="text;html=1;align=center;verticalAlign=middle;whiteSpace=wrap;rounded=0;" vertex="1" parent="yZVFHKXi4NmOl1lv1mpV-104">
          <mxGeometry x="5" y="8" width="110" height="20" as="geometry" />
        </mxCell>
        <mxCell id="yZVFHKXi4NmOl1lv1mpV-92" value="branchPageElement" style="text;html=1;align=center;verticalAlign=middle;whiteSpace=wrap;rounded=0;" vertex="1" parent="yZVFHKXi4NmOl1lv1mpV-104">
          <mxGeometry x="123" y="8" width="110" height="20" as="geometry" />
        </mxCell>
        <mxCell id="yZVFHKXi4NmOl1lv1mpV-93" value="" style="endArrow=none;html=1;rounded=0;entryX=0.305;entryY=0.993;entryDx=0;entryDy=0;entryPerimeter=0;exitX=0.305;exitY=0.004;exitDx=0;exitDy=0;exitPerimeter=0;" edge="1" parent="yZVFHKXi4NmOl1lv1mpV-104">
          <mxGeometry width="50" height="50" relative="1" as="geometry">
            <mxPoint x="118.89999999999998" y="0.12000000000000455" as="sourcePoint" />
            <mxPoint x="118.89999999999998" y="29.789999999999964" as="targetPoint" />
          </mxGeometry>
        </mxCell>
        <mxCell id="yZVFHKXi4NmOl1lv1mpV-94" value="" style="endArrow=none;html=1;rounded=0;entryX=0.305;entryY=0.993;entryDx=0;entryDy=0;entryPerimeter=0;exitX=0.305;exitY=0.004;exitDx=0;exitDy=0;exitPerimeter=0;" edge="1" parent="yZVFHKXi4NmOl1lv1mpV-104">
          <mxGeometry width="50" height="50" relative="1" as="geometry">
            <mxPoint x="236.89999999999998" y="0.12000000000000455" as="sourcePoint" />
            <mxPoint x="236.89999999999998" y="29.789999999999964" as="targetPoint" />
          </mxGeometry>
        </mxCell>
        <mxCell id="yZVFHKXi4NmOl1lv1mpV-95" value="" style="endArrow=none;html=1;rounded=0;entryX=0.305;entryY=0.993;entryDx=0;entryDy=0;entryPerimeter=0;exitX=0.305;exitY=0.004;exitDx=0;exitDy=0;exitPerimeter=0;" edge="1" parent="yZVFHKXi4NmOl1lv1mpV-104">
          <mxGeometry width="50" height="50" relative="1" as="geometry">
            <mxPoint x="257.9" y="0.12000000000000455" as="sourcePoint" />
            <mxPoint x="257.9" y="29.789999999999964" as="targetPoint" />
          </mxGeometry>
        </mxCell>
        <mxCell id="yZVFHKXi4NmOl1lv1mpV-96" value="..." style="text;html=1;align=center;verticalAlign=middle;whiteSpace=wrap;rounded=0;" vertex="1" parent="yZVFHKXi4NmOl1lv1mpV-104">
          <mxGeometry x="242" y="18" width="10" as="geometry" />
        </mxCell>
        <mxCell id="yZVFHKXi4NmOl1lv1mpV-99" value="" style="endArrow=none;html=1;rounded=0;entryX=0.305;entryY=0.993;entryDx=0;entryDy=0;entryPerimeter=0;exitX=0.305;exitY=0.004;exitDx=0;exitDy=0;exitPerimeter=0;" edge="1" parent="yZVFHKXi4NmOl1lv1mpV-104">
          <mxGeometry width="50" height="50" relative="1" as="geometry">
            <mxPoint x="291.9" y="0.12000000000000455" as="sourcePoint" />
            <mxPoint x="291.9" y="29.789999999999964" as="targetPoint" />
          </mxGeometry>
        </mxCell>
        <mxCell id="yZVFHKXi4NmOl1lv1mpV-100" value="key1" style="text;html=1;align=center;verticalAlign=middle;whiteSpace=wrap;rounded=0;" vertex="1" parent="yZVFHKXi4NmOl1lv1mpV-104">
          <mxGeometry x="259" y="13" width="30" height="10" as="geometry" />
        </mxCell>
        <mxCell id="yZVFHKXi4NmOl1lv1mpV-101" value="key2" style="text;html=1;align=center;verticalAlign=middle;whiteSpace=wrap;rounded=0;" vertex="1" parent="yZVFHKXi4NmOl1lv1mpV-104">
          <mxGeometry x="296" y="13" width="30" height="10" as="geometry" />
        </mxCell>
        <mxCell id="yZVFHKXi4NmOl1lv1mpV-102" value="" style="endArrow=none;html=1;rounded=0;entryX=0.305;entryY=0.993;entryDx=0;entryDy=0;entryPerimeter=0;exitX=0.305;exitY=0.004;exitDx=0;exitDy=0;exitPerimeter=0;" edge="1" parent="yZVFHKXi4NmOl1lv1mpV-104">
          <mxGeometry width="50" height="50" relative="1" as="geometry">
            <mxPoint x="326.9" y="0.12000000000000455" as="sourcePoint" />
            <mxPoint x="326.9" y="29.789999999999964" as="targetPoint" />
          </mxGeometry>
        </mxCell>
        <mxCell id="yZVFHKXi4NmOl1lv1mpV-103" value="..." style="text;html=1;align=center;verticalAlign=middle;whiteSpace=wrap;rounded=0;" vertex="1" parent="yZVFHKXi4NmOl1lv1mpV-104">
          <mxGeometry x="330" y="17" width="10" as="geometry" />
        </mxCell>
        <mxCell id="yZVFHKXi4NmOl1lv1mpV-105" value="" style="endArrow=classic;html=1;rounded=0;entryX=0;entryY=0;entryDx=0;entryDy=0;dashed=1;" edge="1" parent="1" target="yZVFHKXi4NmOl1lv1mpV-90">
          <mxGeometry width="50" height="50" relative="1" as="geometry">
            <mxPoint x="409" y="450" as="sourcePoint" />
            <mxPoint x="609" y="390" as="targetPoint" />
          </mxGeometry>
        </mxCell>
        <mxCell id="yZVFHKXi4NmOl1lv1mpV-106" value="" style="endArrow=classic;html=1;rounded=0;entryX=1;entryY=0;entryDx=0;entryDy=0;exitX=1;exitY=1;exitDx=0;exitDy=0;dashed=1;" edge="1" parent="1" source="yZVFHKXi4NmOl1lv1mpV-77" target="yZVFHKXi4NmOl1lv1mpV-90">
          <mxGeometry width="50" height="50" relative="1" as="geometry">
            <mxPoint x="549" y="460" as="sourcePoint" />
            <mxPoint x="599" y="410" as="targetPoint" />
          </mxGeometry>
        </mxCell>
        <mxCell id="yZVFHKXi4NmOl1lv1mpV-113" value="" style="shape=crossbar;whiteSpace=wrap;html=1;rounded=1;" vertex="1" parent="1">
          <mxGeometry x="280" y="520" width="258" height="20" as="geometry" />
        </mxCell>
        <mxCell id="yZVFHKXi4NmOl1lv1mpV-114" value="" style="group" vertex="1" connectable="0" parent="1">
          <mxGeometry x="240" y="570" width="120" height="40" as="geometry" />
        </mxCell>
        <mxCell id="yZVFHKXi4NmOl1lv1mpV-107" value="" style="rounded=0;whiteSpace=wrap;html=1;" vertex="1" parent="yZVFHKXi4NmOl1lv1mpV-114">
          <mxGeometry width="120" height="40" as="geometry" />
        </mxCell>
        <mxCell id="yZVFHKXi4NmOl1lv1mpV-108" value="pos" style="text;html=1;align=center;verticalAlign=middle;whiteSpace=wrap;rounded=0;" vertex="1" parent="yZVFHKXi4NmOl1lv1mpV-114">
          <mxGeometry x="10" y="10" width="20" height="20" as="geometry" />
        </mxCell>
        <mxCell id="yZVFHKXi4NmOl1lv1mpV-109" value="" style="endArrow=none;html=1;rounded=0;entryX=0.283;entryY=0.007;entryDx=0;entryDy=0;entryPerimeter=0;exitX=0.283;exitY=1.008;exitDx=0;exitDy=0;exitPerimeter=0;" edge="1" parent="yZVFHKXi4NmOl1lv1mpV-114" source="yZVFHKXi4NmOl1lv1mpV-107" target="yZVFHKXi4NmOl1lv1mpV-107">
          <mxGeometry width="50" height="50" relative="1" as="geometry">
            <mxPoint x="46" y="75" as="sourcePoint" />
            <mxPoint x="96" y="25" as="targetPoint" />
          </mxGeometry>
        </mxCell>
        <mxCell id="yZVFHKXi4NmOl1lv1mpV-110" value="ksize" style="text;html=1;align=center;verticalAlign=middle;whiteSpace=wrap;rounded=0;" vertex="1" parent="yZVFHKXi4NmOl1lv1mpV-114">
          <mxGeometry x="40" y="10" width="30" height="20" as="geometry" />
        </mxCell>
        <mxCell id="yZVFHKXi4NmOl1lv1mpV-111" value="" style="endArrow=none;html=1;rounded=0;entryX=0.283;entryY=0.007;entryDx=0;entryDy=0;entryPerimeter=0;exitX=0.616;exitY=1.005;exitDx=0;exitDy=0;exitPerimeter=0;" edge="1" parent="yZVFHKXi4NmOl1lv1mpV-114" source="yZVFHKXi4NmOl1lv1mpV-107">
          <mxGeometry width="50" height="50" relative="1" as="geometry">
            <mxPoint x="73.96158004158008" y="35" as="sourcePoint" />
            <mxPoint x="74" as="targetPoint" />
          </mxGeometry>
        </mxCell>
        <mxCell id="yZVFHKXi4NmOl1lv1mpV-112" value="pgid" style="text;html=1;align=center;verticalAlign=middle;whiteSpace=wrap;rounded=0;" vertex="1" parent="yZVFHKXi4NmOl1lv1mpV-114">
          <mxGeometry x="80" y="10" width="30" height="20" as="geometry" />
        </mxCell>
        <mxCell id="yZVFHKXi4NmOl1lv1mpV-115" value="" style="curved=1;endArrow=classic;html=1;rounded=0;exitX=0.5;exitY=0;exitDx=0;exitDy=0;entryX=0.488;entryY=0.684;entryDx=0;entryDy=0;entryPerimeter=0;dashed=1;dashPattern=1 2;" edge="1" parent="1" source="yZVFHKXi4NmOl1lv1mpV-108" target="yZVFHKXi4NmOl1lv1mpV-113">
          <mxGeometry width="50" height="50" relative="1" as="geometry">
            <mxPoint x="459" y="660" as="sourcePoint" />
            <mxPoint x="509" y="610" as="targetPoint" />
            <Array as="points">
              <mxPoint x="290" y="550" />
              <mxPoint x="390" y="560" />
            </Array>
          </mxGeometry>
        </mxCell>
        <mxCell id="yZVFHKXi4NmOl1lv1mpV-116" value="difference of address" style="text;html=1;align=center;verticalAlign=middle;whiteSpace=wrap;rounded=0;" vertex="1" parent="1">
          <mxGeometry x="410" y="540" width="60" height="30" as="geometry" />
        </mxCell>
        <mxCell id="yZVFHKXi4NmOl1lv1mpV-185" style="rounded=0;orthogonalLoop=1;jettySize=auto;html=1;exitX=0.5;exitY=1;exitDx=0;exitDy=0;entryX=0.5;entryY=0;entryDx=0;entryDy=0;" edge="1" parent="1" source="yZVFHKXi4NmOl1lv1mpV-129" target="yZVFHKXi4NmOl1lv1mpV-179">
          <mxGeometry relative="1" as="geometry" />
        </mxCell>
        <mxCell id="yZVFHKXi4NmOl1lv1mpV-186" style="rounded=0;orthogonalLoop=1;jettySize=auto;html=1;entryX=0.5;entryY=0;entryDx=0;entryDy=0;" edge="1" parent="1" target="yZVFHKXi4NmOl1lv1mpV-181">
          <mxGeometry relative="1" as="geometry">
            <mxPoint x="152" y="724" as="sourcePoint" />
          </mxGeometry>
        </mxCell>
        <mxCell id="yZVFHKXi4NmOl1lv1mpV-129" value="BranchPage" style="rounded=0;whiteSpace=wrap;html=1;" vertex="1" parent="1">
          <mxGeometry x="100" y="684" width="100" height="40" as="geometry" />
        </mxCell>
        <mxCell id="yZVFHKXi4NmOl1lv1mpV-131" value="" style="curved=1;endArrow=classic;html=1;rounded=0;entryX=0.5;entryY=0;entryDx=0;entryDy=0;exitX=0.804;exitY=1.003;exitDx=0;exitDy=0;exitPerimeter=0;" edge="1" parent="1" source="yZVFHKXi4NmOl1lv1mpV-107" target="yZVFHKXi4NmOl1lv1mpV-129">
          <mxGeometry width="50" height="50" relative="1" as="geometry">
            <mxPoint x="340" y="610" as="sourcePoint" />
            <mxPoint x="359" y="640" as="targetPoint" />
            <Array as="points">
              <mxPoint x="330" y="610" />
              <mxPoint x="180" y="620" />
            </Array>
          </mxGeometry>
        </mxCell>
        <mxCell id="yZVFHKXi4NmOl1lv1mpV-133" value="" style="rounded=0;whiteSpace=wrap;html=1;" vertex="1" parent="1">
          <mxGeometry x="330" y="684" width="240" height="80" as="geometry" />
        </mxCell>
        <mxCell id="yZVFHKXi4NmOl1lv1mpV-134" value="" style="endArrow=none;html=1;rounded=0;exitX=0;exitY=0.5;exitDx=0;exitDy=0;entryX=1;entryY=0.5;entryDx=0;entryDy=0;" edge="1" parent="1" source="yZVFHKXi4NmOl1lv1mpV-133" target="yZVFHKXi4NmOl1lv1mpV-133">
          <mxGeometry width="50" height="50" relative="1" as="geometry">
            <mxPoint x="475" y="924" as="sourcePoint" />
            <mxPoint x="525" y="874" as="targetPoint" />
          </mxGeometry>
        </mxCell>
        <mxCell id="yZVFHKXi4NmOl1lv1mpV-135" value="Leaf Page" style="text;html=1;align=center;verticalAlign=middle;whiteSpace=wrap;rounded=0;" vertex="1" parent="1">
          <mxGeometry x="390" y="689" width="130" height="30" as="geometry" />
        </mxCell>
        <mxCell id="yZVFHKXi4NmOl1lv1mpV-136" value="" style="endArrow=none;html=1;rounded=0;exitX=0.125;exitY=1.001;exitDx=0;exitDy=0;exitPerimeter=0;" edge="1" parent="1">
          <mxGeometry width="50" height="50" relative="1" as="geometry">
            <mxPoint x="360.99999999999994" y="764.08" as="sourcePoint" />
            <mxPoint x="361" y="724" as="targetPoint" />
          </mxGeometry>
        </mxCell>
        <mxCell id="yZVFHKXi4NmOl1lv1mpV-137" value="pgid" style="text;html=1;align=center;verticalAlign=middle;whiteSpace=wrap;rounded=0;" vertex="1" parent="1">
          <mxGeometry x="336" y="734" width="20" height="20" as="geometry" />
        </mxCell>
        <mxCell id="yZVFHKXi4NmOl1lv1mpV-138" value="flags=2" style="text;html=1;align=center;verticalAlign=middle;whiteSpace=wrap;rounded=0;" vertex="1" parent="1">
          <mxGeometry x="364" y="739" width="40" height="10" as="geometry" />
        </mxCell>
        <mxCell id="yZVFHKXi4NmOl1lv1mpV-140" value="count" style="text;html=1;align=center;verticalAlign=middle;whiteSpace=wrap;rounded=0;" vertex="1" parent="1">
          <mxGeometry x="409" y="739" width="30" height="10" as="geometry" />
        </mxCell>
        <mxCell id="yZVFHKXi4NmOl1lv1mpV-142" value="overflow" style="text;html=1;align=center;verticalAlign=middle;whiteSpace=wrap;rounded=0;" vertex="1" parent="1">
          <mxGeometry x="448" y="740" width="50" height="10" as="geometry" />
        </mxCell>
        <mxCell id="yZVFHKXi4NmOl1lv1mpV-144" value="ptr" style="text;html=1;align=center;verticalAlign=middle;whiteSpace=wrap;rounded=0;" vertex="1" parent="1">
          <mxGeometry x="500" y="734" width="30" height="20" as="geometry" />
        </mxCell>
        <mxCell id="yZVFHKXi4NmOl1lv1mpV-175" style="rounded=0;orthogonalLoop=1;jettySize=auto;html=1;exitX=0.25;exitY=1;exitDx=0;exitDy=0;entryX=1;entryY=0;entryDx=0;entryDy=0;" edge="1" parent="1" source="yZVFHKXi4NmOl1lv1mpV-145" target="yZVFHKXi4NmOl1lv1mpV-165">
          <mxGeometry relative="1" as="geometry" />
        </mxCell>
        <mxCell id="yZVFHKXi4NmOl1lv1mpV-145" value="" style="rounded=0;whiteSpace=wrap;html=1;" vertex="1" parent="1">
          <mxGeometry x="300" y="841" width="420" height="40" as="geometry" />
        </mxCell>
        <mxCell id="yZVFHKXi4NmOl1lv1mpV-146" value="" style="endArrow=none;html=1;rounded=0;entryX=0.203;entryY=0.024;entryDx=0;entryDy=0;entryPerimeter=0;" edge="1" parent="1">
          <mxGeometry width="50" height="50" relative="1" as="geometry">
            <mxPoint x="407" y="881" as="sourcePoint" />
            <mxPoint x="407" y="840.96" as="targetPoint" />
          </mxGeometry>
        </mxCell>
        <mxCell id="yZVFHKXi4NmOl1lv1mpV-147" value="leafPageElement" style="text;html=1;align=center;verticalAlign=middle;whiteSpace=wrap;rounded=0;" vertex="1" parent="1">
          <mxGeometry x="303" y="851" width="100" height="20" as="geometry" />
        </mxCell>
        <mxCell id="yZVFHKXi4NmOl1lv1mpV-149" value="leafPageElement" style="text;html=1;align=center;verticalAlign=middle;whiteSpace=wrap;rounded=0;" vertex="1" parent="1">
          <mxGeometry x="408" y="851" width="100" height="20" as="geometry" />
        </mxCell>
        <mxCell id="yZVFHKXi4NmOl1lv1mpV-150" value="" style="endArrow=none;html=1;rounded=0;entryX=0.203;entryY=0.024;entryDx=0;entryDy=0;entryPerimeter=0;" edge="1" parent="1">
          <mxGeometry width="50" height="50" relative="1" as="geometry">
            <mxPoint x="509" y="881" as="sourcePoint" />
            <mxPoint x="509" y="840.96" as="targetPoint" />
          </mxGeometry>
        </mxCell>
        <mxCell id="yZVFHKXi4NmOl1lv1mpV-151" value="..." style="text;html=1;align=center;verticalAlign=middle;whiteSpace=wrap;rounded=0;" vertex="1" parent="1">
          <mxGeometry x="510" y="851" width="20" height="10" as="geometry" />
        </mxCell>
        <mxCell id="yZVFHKXi4NmOl1lv1mpV-152" value="" style="endArrow=none;html=1;rounded=0;entryX=0.203;entryY=0.024;entryDx=0;entryDy=0;entryPerimeter=0;" edge="1" parent="1">
          <mxGeometry width="50" height="50" relative="1" as="geometry">
            <mxPoint x="533" y="881" as="sourcePoint" />
            <mxPoint x="533" y="840.96" as="targetPoint" />
          </mxGeometry>
        </mxCell>
        <mxCell id="yZVFHKXi4NmOl1lv1mpV-153" value="key1" style="text;html=1;align=center;verticalAlign=middle;whiteSpace=wrap;rounded=0;" vertex="1" parent="1">
          <mxGeometry x="536" y="851" width="30" height="20" as="geometry" />
        </mxCell>
        <mxCell id="yZVFHKXi4NmOl1lv1mpV-154" value="" style="endArrow=none;html=1;rounded=0;entryX=0.203;entryY=0.024;entryDx=0;entryDy=0;entryPerimeter=0;" edge="1" parent="1">
          <mxGeometry width="50" height="50" relative="1" as="geometry">
            <mxPoint x="568" y="881" as="sourcePoint" />
            <mxPoint x="568" y="840.96" as="targetPoint" />
          </mxGeometry>
        </mxCell>
        <mxCell id="yZVFHKXi4NmOl1lv1mpV-155" value="value1" style="text;html=1;align=center;verticalAlign=middle;whiteSpace=wrap;rounded=0;" vertex="1" parent="1">
          <mxGeometry x="570" y="851" width="40" height="20" as="geometry" />
        </mxCell>
        <mxCell id="yZVFHKXi4NmOl1lv1mpV-156" value="" style="endArrow=none;html=1;rounded=0;entryX=0.203;entryY=0.024;entryDx=0;entryDy=0;entryPerimeter=0;" edge="1" parent="1">
          <mxGeometry width="50" height="50" relative="1" as="geometry">
            <mxPoint x="611" y="881" as="sourcePoint" />
            <mxPoint x="611" y="840.96" as="targetPoint" />
          </mxGeometry>
        </mxCell>
        <mxCell id="yZVFHKXi4NmOl1lv1mpV-157" value="key2" style="text;html=1;align=center;verticalAlign=middle;whiteSpace=wrap;rounded=0;" vertex="1" parent="1">
          <mxGeometry x="610" y="851" width="30" height="20" as="geometry" />
        </mxCell>
        <mxCell id="yZVFHKXi4NmOl1lv1mpV-158" value="value2" style="text;html=1;align=center;verticalAlign=middle;whiteSpace=wrap;rounded=0;" vertex="1" parent="1">
          <mxGeometry x="650" y="851" width="40" height="20" as="geometry" />
        </mxCell>
        <mxCell id="yZVFHKXi4NmOl1lv1mpV-159" value="" style="endArrow=none;html=1;rounded=0;entryX=0.203;entryY=0.024;entryDx=0;entryDy=0;entryPerimeter=0;" edge="1" parent="1">
          <mxGeometry width="50" height="50" relative="1" as="geometry">
            <mxPoint x="647" y="881" as="sourcePoint" />
            <mxPoint x="647" y="840.96" as="targetPoint" />
          </mxGeometry>
        </mxCell>
        <mxCell id="yZVFHKXi4NmOl1lv1mpV-160" value="..." style="text;html=1;align=center;verticalAlign=middle;whiteSpace=wrap;rounded=0;" vertex="1" parent="1">
          <mxGeometry x="696" y="856" width="20" height="10" as="geometry" />
        </mxCell>
        <mxCell id="yZVFHKXi4NmOl1lv1mpV-161" value="" style="endArrow=none;html=1;rounded=0;entryX=0.203;entryY=0.024;entryDx=0;entryDy=0;entryPerimeter=0;" edge="1" parent="1">
          <mxGeometry width="50" height="50" relative="1" as="geometry">
            <mxPoint x="693" y="881" as="sourcePoint" />
            <mxPoint x="693" y="840.96" as="targetPoint" />
          </mxGeometry>
        </mxCell>
        <mxCell id="yZVFHKXi4NmOl1lv1mpV-162" value="" style="curved=1;endArrow=classic;html=1;rounded=0;exitX=0.8;exitY=1.005;exitDx=0;exitDy=0;exitPerimeter=0;entryX=0.5;entryY=0;entryDx=0;entryDy=0;" edge="1" parent="1" source="yZVFHKXi4NmOl1lv1mpV-107" target="yZVFHKXi4NmOl1lv1mpV-133">
          <mxGeometry width="50" height="50" relative="1" as="geometry">
            <mxPoint x="339" y="610" as="sourcePoint" />
            <mxPoint x="579" y="570" as="targetPoint" />
            <Array as="points">
              <mxPoint x="350" y="620" />
              <mxPoint x="430" y="630" />
            </Array>
          </mxGeometry>
        </mxCell>
        <mxCell id="yZVFHKXi4NmOl1lv1mpV-163" value="" style="endArrow=classic;html=1;rounded=0;exitX=0.719;exitY=1.004;exitDx=0;exitDy=0;exitPerimeter=0;entryX=0;entryY=0;entryDx=0;entryDy=0;" edge="1" parent="1" source="yZVFHKXi4NmOl1lv1mpV-133" target="yZVFHKXi4NmOl1lv1mpV-145">
          <mxGeometry width="50" height="50" relative="1" as="geometry">
            <mxPoint x="549" y="834" as="sourcePoint" />
            <mxPoint x="599" y="784" as="targetPoint" />
          </mxGeometry>
        </mxCell>
        <mxCell id="yZVFHKXi4NmOl1lv1mpV-164" value="" style="endArrow=classic;html=1;rounded=0;exitX=1;exitY=1;exitDx=0;exitDy=0;entryX=1;entryY=0;entryDx=0;entryDy=0;" edge="1" parent="1" source="yZVFHKXi4NmOl1lv1mpV-133" target="yZVFHKXi4NmOl1lv1mpV-145">
          <mxGeometry width="50" height="50" relative="1" as="geometry">
            <mxPoint x="649" y="794" as="sourcePoint" />
            <mxPoint x="699" y="744" as="targetPoint" />
          </mxGeometry>
        </mxCell>
        <mxCell id="yZVFHKXi4NmOl1lv1mpV-165" value="" style="rounded=0;whiteSpace=wrap;html=1;" vertex="1" parent="1">
          <mxGeometry x="280" y="931" width="160" height="40" as="geometry" />
        </mxCell>
        <mxCell id="yZVFHKXi4NmOl1lv1mpV-166" value="" style="endArrow=none;html=1;rounded=0;entryX=0.25;entryY=0;entryDx=0;entryDy=0;exitX=0.25;exitY=1;exitDx=0;exitDy=0;" edge="1" parent="1">
          <mxGeometry width="50" height="50" relative="1" as="geometry">
            <mxPoint x="323.75" y="971" as="sourcePoint" />
            <mxPoint x="323.75" y="931" as="targetPoint" />
          </mxGeometry>
        </mxCell>
        <mxCell id="yZVFHKXi4NmOl1lv1mpV-167" value="flags" style="text;html=1;align=center;verticalAlign=middle;whiteSpace=wrap;rounded=0;" vertex="1" parent="1">
          <mxGeometry x="290" y="937" width="30" height="30" as="geometry" />
        </mxCell>
        <mxCell id="yZVFHKXi4NmOl1lv1mpV-168" value="pos" style="text;html=1;align=center;verticalAlign=middle;whiteSpace=wrap;rounded=0;" vertex="1" parent="1">
          <mxGeometry x="330" y="937" width="30" height="30" as="geometry" />
        </mxCell>
        <mxCell id="yZVFHKXi4NmOl1lv1mpV-170" value="" style="endArrow=none;html=1;rounded=0;entryX=0.25;entryY=0;entryDx=0;entryDy=0;exitX=0.25;exitY=1;exitDx=0;exitDy=0;" edge="1" parent="1">
          <mxGeometry width="50" height="50" relative="1" as="geometry">
            <mxPoint x="360.5" y="971" as="sourcePoint" />
            <mxPoint x="360.5" y="931" as="targetPoint" />
          </mxGeometry>
        </mxCell>
        <mxCell id="yZVFHKXi4NmOl1lv1mpV-171" value="ksize" style="text;html=1;align=center;verticalAlign=middle;whiteSpace=wrap;rounded=0;" vertex="1" parent="1">
          <mxGeometry x="363" y="937" width="30" height="30" as="geometry" />
        </mxCell>
        <mxCell id="yZVFHKXi4NmOl1lv1mpV-172" value="vsize" style="text;html=1;align=center;verticalAlign=middle;whiteSpace=wrap;rounded=0;" vertex="1" parent="1">
          <mxGeometry x="403" y="937" width="30" height="30" as="geometry" />
        </mxCell>
        <mxCell id="yZVFHKXi4NmOl1lv1mpV-173" value="" style="endArrow=none;html=1;rounded=0;entryX=0.25;entryY=0;entryDx=0;entryDy=0;exitX=0.25;exitY=1;exitDx=0;exitDy=0;" edge="1" parent="1">
          <mxGeometry width="50" height="50" relative="1" as="geometry">
            <mxPoint x="397.5" y="971" as="sourcePoint" />
            <mxPoint x="397.5" y="931" as="targetPoint" />
          </mxGeometry>
        </mxCell>
        <mxCell id="yZVFHKXi4NmOl1lv1mpV-174" value="" style="endArrow=classic;html=1;rounded=0;exitX=0;exitY=1;exitDx=0;exitDy=0;entryX=0;entryY=0;entryDx=0;entryDy=0;" edge="1" parent="1" source="yZVFHKXi4NmOl1lv1mpV-145" target="yZVFHKXi4NmOl1lv1mpV-165">
          <mxGeometry width="50" height="50" relative="1" as="geometry">
            <mxPoint x="329" y="911" as="sourcePoint" />
            <mxPoint x="379" y="861" as="targetPoint" />
          </mxGeometry>
        </mxCell>
        <mxCell id="yZVFHKXi4NmOl1lv1mpV-176" value="Sub-Bucket" style="rounded=0;whiteSpace=wrap;html=1;" vertex="1" parent="1">
          <mxGeometry x="590" y="971" width="100" height="40" as="geometry" />
        </mxCell>
        <mxCell id="yZVFHKXi4NmOl1lv1mpV-177" value="" style="endArrow=classic;html=1;rounded=0;exitX=0.895;exitY=0.991;exitDx=0;exitDy=0;exitPerimeter=0;entryX=0.5;entryY=0;entryDx=0;entryDy=0;" edge="1" parent="1" source="yZVFHKXi4NmOl1lv1mpV-145" target="yZVFHKXi4NmOl1lv1mpV-176">
          <mxGeometry width="50" height="50" relative="1" as="geometry">
            <mxPoint x="719" y="911" as="sourcePoint" />
            <mxPoint x="769" y="861" as="targetPoint" />
          </mxGeometry>
        </mxCell>
        <mxCell id="yZVFHKXi4NmOl1lv1mpV-178" value="flags=1" style="text;html=1;align=center;verticalAlign=middle;whiteSpace=wrap;rounded=0;" vertex="1" parent="1">
          <mxGeometry x="650" y="921" width="60" height="30" as="geometry" />
        </mxCell>
        <mxCell id="yZVFHKXi4NmOl1lv1mpV-179" value="Leaf Page" style="rounded=0;whiteSpace=wrap;html=1;" vertex="1" parent="1">
          <mxGeometry x="30" y="1014" width="70" height="40" as="geometry" />
        </mxCell>
        <mxCell id="yZVFHKXi4NmOl1lv1mpV-181" value="Leaf Page" style="rounded=0;whiteSpace=wrap;html=1;" vertex="1" parent="1">
          <mxGeometry x="110" y="1014" width="70" height="40" as="geometry" />
        </mxCell>
        <mxCell id="yZVFHKXi4NmOl1lv1mpV-182" value="Leaf Page" style="rounded=0;whiteSpace=wrap;html=1;" vertex="1" parent="1">
          <mxGeometry x="240" y="1014" width="70" height="40" as="geometry" />
        </mxCell>
        <mxCell id="yZVFHKXi4NmOl1lv1mpV-184" value="..." style="text;html=1;align=center;verticalAlign=middle;whiteSpace=wrap;rounded=0;" vertex="1" parent="1">
          <mxGeometry x="193" y="1020" width="30" height="30" as="geometry" />
        </mxCell>
        <mxCell id="yZVFHKXi4NmOl1lv1mpV-187" style="rounded=0;orthogonalLoop=1;jettySize=auto;html=1;exitX=0.5;exitY=1;exitDx=0;exitDy=0;entryX=0.5;entryY=0;entryDx=0;entryDy=0;" edge="1" parent="1" source="yZVFHKXi4NmOl1lv1mpV-129" target="yZVFHKXi4NmOl1lv1mpV-182">
          <mxGeometry relative="1" as="geometry" />
        </mxCell>
        <mxCell id="yZVFHKXi4NmOl1lv1mpV-188" value="page" style="swimlane;fontStyle=0;childLayout=stackLayout;horizontal=1;startSize=26;fillColor=none;horizontalStack=0;resizeParent=1;resizeParentMax=0;resizeLast=0;collapsible=1;marginBottom=0;whiteSpace=wrap;html=1;" vertex="1" parent="1">
          <mxGeometry x="650" y="137" width="160" height="176" as="geometry" />
        </mxCell>
        <mxCell id="yZVFHKXi4NmOl1lv1mpV-189" value="+ id: pgid" style="text;strokeColor=none;fillColor=none;align=left;verticalAlign=top;spacingLeft=4;spacingRight=4;overflow=hidden;rotatable=0;points=[[0,0.5],[1,0.5]];portConstraint=eastwest;whiteSpace=wrap;html=1;" vertex="1" parent="yZVFHKXi4NmOl1lv1mpV-188">
          <mxGeometry y="26" width="160" height="30" as="geometry" />
        </mxCell>
        <mxCell id="yZVFHKXi4NmOl1lv1mpV-190" value="+ flags: uint16" style="text;strokeColor=none;fillColor=none;align=left;verticalAlign=top;spacingLeft=4;spacingRight=4;overflow=hidden;rotatable=0;points=[[0,0.5],[1,0.5]];portConstraint=eastwest;whiteSpace=wrap;html=1;" vertex="1" parent="yZVFHKXi4NmOl1lv1mpV-188">
          <mxGeometry y="56" width="160" height="30" as="geometry" />
        </mxCell>
        <mxCell id="yZVFHKXi4NmOl1lv1mpV-191" value="+ count: uint16" style="text;strokeColor=none;fillColor=none;align=left;verticalAlign=top;spacingLeft=4;spacingRight=4;overflow=hidden;rotatable=0;points=[[0,0.5],[1,0.5]];portConstraint=eastwest;whiteSpace=wrap;html=1;" vertex="1" parent="yZVFHKXi4NmOl1lv1mpV-188">
          <mxGeometry y="86" width="160" height="30" as="geometry" />
        </mxCell>
        <mxCell id="yZVFHKXi4NmOl1lv1mpV-192" value="+ overflow: uint32" style="text;strokeColor=none;fillColor=none;align=left;verticalAlign=top;spacingLeft=4;spacingRight=4;overflow=hidden;rotatable=0;points=[[0,0.5],[1,0.5]];portConstraint=eastwest;whiteSpace=wrap;html=1;" vertex="1" parent="yZVFHKXi4NmOl1lv1mpV-188">
          <mxGeometry y="116" width="160" height="30" as="geometry" />
        </mxCell>
        <mxCell id="yZVFHKXi4NmOl1lv1mpV-193" value="+ ptr: uintptr" style="text;strokeColor=none;fillColor=none;align=left;verticalAlign=top;spacingLeft=4;spacingRight=4;overflow=hidden;rotatable=0;points=[[0,0.5],[1,0.5]];portConstraint=eastwest;whiteSpace=wrap;html=1;" vertex="1" parent="yZVFHKXi4NmOl1lv1mpV-188">
          <mxGeometry y="146" width="160" height="30" as="geometry" />
        </mxCell>
        <mxCell id="yZVFHKXi4NmOl1lv1mpV-194" value="leafPageElement" style="swimlane;fontStyle=0;childLayout=stackLayout;horizontal=1;startSize=26;fillColor=none;horizontalStack=0;resizeParent=1;resizeParentMax=0;resizeLast=0;collapsible=1;marginBottom=0;whiteSpace=wrap;html=1;" vertex="1" parent="1">
          <mxGeometry x="650" y="319" width="160" height="146" as="geometry" />
        </mxCell>
        <mxCell id="yZVFHKXi4NmOl1lv1mpV-195" value="+ flags: uint32" style="text;strokeColor=none;fillColor=none;align=left;verticalAlign=top;spacingLeft=4;spacingRight=4;overflow=hidden;rotatable=0;points=[[0,0.5],[1,0.5]];portConstraint=eastwest;whiteSpace=wrap;html=1;" vertex="1" parent="yZVFHKXi4NmOl1lv1mpV-194">
          <mxGeometry y="26" width="160" height="30" as="geometry" />
        </mxCell>
        <mxCell id="yZVFHKXi4NmOl1lv1mpV-196" value="+ pod: uint32" style="text;strokeColor=none;fillColor=none;align=left;verticalAlign=top;spacingLeft=4;spacingRight=4;overflow=hidden;rotatable=0;points=[[0,0.5],[1,0.5]];portConstraint=eastwest;whiteSpace=wrap;html=1;" vertex="1" parent="yZVFHKXi4NmOl1lv1mpV-194">
          <mxGeometry y="56" width="160" height="30" as="geometry" />
        </mxCell>
        <mxCell id="yZVFHKXi4NmOl1lv1mpV-197" value="+ ksize: uint32" style="text;strokeColor=none;fillColor=none;align=left;verticalAlign=top;spacingLeft=4;spacingRight=4;overflow=hidden;rotatable=0;points=[[0,0.5],[1,0.5]];portConstraint=eastwest;whiteSpace=wrap;html=1;" vertex="1" parent="yZVFHKXi4NmOl1lv1mpV-194">
          <mxGeometry y="86" width="160" height="30" as="geometry" />
        </mxCell>
        <mxCell id="yZVFHKXi4NmOl1lv1mpV-198" value="+ vsize: uint32" style="text;strokeColor=none;fillColor=none;align=left;verticalAlign=top;spacingLeft=4;spacingRight=4;overflow=hidden;rotatable=0;points=[[0,0.5],[1,0.5]];portConstraint=eastwest;whiteSpace=wrap;html=1;" vertex="1" parent="yZVFHKXi4NmOl1lv1mpV-194">
          <mxGeometry y="116" width="160" height="30" as="geometry" />
        </mxCell>
        <mxCell id="yZVFHKXi4NmOl1lv1mpV-200" value="branchPageElement" style="swimlane;fontStyle=0;childLayout=stackLayout;horizontal=1;startSize=26;fillColor=none;horizontalStack=0;resizeParent=1;resizeParentMax=0;resizeLast=0;collapsible=1;marginBottom=0;whiteSpace=wrap;html=1;" vertex="1" parent="1">
          <mxGeometry x="650" y="471" width="160" height="116" as="geometry" />
        </mxCell>
        <mxCell id="yZVFHKXi4NmOl1lv1mpV-202" value="+ pod: uint32" style="text;strokeColor=none;fillColor=none;align=left;verticalAlign=top;spacingLeft=4;spacingRight=4;overflow=hidden;rotatable=0;points=[[0,0.5],[1,0.5]];portConstraint=eastwest;whiteSpace=wrap;html=1;" vertex="1" parent="yZVFHKXi4NmOl1lv1mpV-200">
          <mxGeometry y="26" width="160" height="30" as="geometry" />
        </mxCell>
        <mxCell id="yZVFHKXi4NmOl1lv1mpV-203" value="+ ksize: uint32" style="text;strokeColor=none;fillColor=none;align=left;verticalAlign=top;spacingLeft=4;spacingRight=4;overflow=hidden;rotatable=0;points=[[0,0.5],[1,0.5]];portConstraint=eastwest;whiteSpace=wrap;html=1;" vertex="1" parent="yZVFHKXi4NmOl1lv1mpV-200">
          <mxGeometry y="56" width="160" height="30" as="geometry" />
        </mxCell>
        <mxCell id="yZVFHKXi4NmOl1lv1mpV-204" value="+ pgid: pgid" style="text;strokeColor=none;fillColor=none;align=left;verticalAlign=top;spacingLeft=4;spacingRight=4;overflow=hidden;rotatable=0;points=[[0,0.5],[1,0.5]];portConstraint=eastwest;whiteSpace=wrap;html=1;" vertex="1" parent="yZVFHKXi4NmOl1lv1mpV-200">
          <mxGeometry y="86" width="160" height="30" as="geometry" />
        </mxCell>
        <mxCell id="yZVFHKXi4NmOl1lv1mpV-205" value="Bucket" style="swimlane;fontStyle=0;childLayout=stackLayout;horizontal=1;startSize=26;fillColor=none;horizontalStack=0;resizeParent=1;resizeParentMax=0;resizeLast=0;collapsible=1;marginBottom=0;whiteSpace=wrap;html=1;" vertex="1" parent="1">
          <mxGeometry x="650" y="595" width="170" height="206" as="geometry" />
        </mxCell>
        <mxCell id="yZVFHKXi4NmOl1lv1mpV-206" value="+ root: pgid" style="text;strokeColor=none;fillColor=none;align=left;verticalAlign=top;spacingLeft=4;spacingRight=4;overflow=hidden;rotatable=0;points=[[0,0.5],[1,0.5]];portConstraint=eastwest;whiteSpace=wrap;html=1;" vertex="1" parent="yZVFHKXi4NmOl1lv1mpV-205">
          <mxGeometry y="26" width="170" height="30" as="geometry" />
        </mxCell>
        <mxCell id="yZVFHKXi4NmOl1lv1mpV-207" value="+ sequence: uint64" style="text;strokeColor=none;fillColor=none;align=left;verticalAlign=top;spacingLeft=4;spacingRight=4;overflow=hidden;rotatable=0;points=[[0,0.5],[1,0.5]];portConstraint=eastwest;whiteSpace=wrap;html=1;" vertex="1" parent="yZVFHKXi4NmOl1lv1mpV-205">
          <mxGeometry y="56" width="170" height="30" as="geometry" />
        </mxCell>
        <mxCell id="yZVFHKXi4NmOl1lv1mpV-208" value="+ tx: *Tx" style="text;strokeColor=none;fillColor=none;align=left;verticalAlign=top;spacingLeft=4;spacingRight=4;overflow=hidden;rotatable=0;points=[[0,0.5],[1,0.5]];portConstraint=eastwest;whiteSpace=wrap;html=1;" vertex="1" parent="yZVFHKXi4NmOl1lv1mpV-205">
          <mxGeometry y="86" width="170" height="30" as="geometry" />
        </mxCell>
        <mxCell id="yZVFHKXi4NmOl1lv1mpV-209" value="+ buckets: map[string]*Bucket" style="text;strokeColor=none;fillColor=none;align=left;verticalAlign=top;spacingLeft=4;spacingRight=4;overflow=hidden;rotatable=0;points=[[0,0.5],[1,0.5]];portConstraint=eastwest;whiteSpace=wrap;html=1;" vertex="1" parent="yZVFHKXi4NmOl1lv1mpV-205">
          <mxGeometry y="116" width="170" height="30" as="geometry" />
        </mxCell>
        <mxCell id="yZVFHKXi4NmOl1lv1mpV-210" value="+ rootNode: *node" style="text;strokeColor=none;fillColor=none;align=left;verticalAlign=top;spacingLeft=4;spacingRight=4;overflow=hidden;rotatable=0;points=[[0,0.5],[1,0.5]];portConstraint=eastwest;whiteSpace=wrap;html=1;" vertex="1" parent="yZVFHKXi4NmOl1lv1mpV-205">
          <mxGeometry y="146" width="170" height="30" as="geometry" />
        </mxCell>
        <mxCell id="yZVFHKXi4NmOl1lv1mpV-211" value="+ nodes: map[pgid]*node" style="text;strokeColor=none;fillColor=none;align=left;verticalAlign=top;spacingLeft=4;spacingRight=4;overflow=hidden;rotatable=0;points=[[0,0.5],[1,0.5]];portConstraint=eastwest;whiteSpace=wrap;html=1;" vertex="1" parent="yZVFHKXi4NmOl1lv1mpV-205">
          <mxGeometry y="176" width="170" height="30" as="geometry" />
        </mxCell>
        <mxCell id="yZVFHKXi4NmOl1lv1mpV-212" value="node" style="swimlane;fontStyle=0;childLayout=stackLayout;horizontal=1;startSize=26;fillColor=none;horizontalStack=0;resizeParent=1;resizeParentMax=0;resizeLast=0;collapsible=1;marginBottom=0;whiteSpace=wrap;html=1;" vertex="1" parent="1">
          <mxGeometry x="10" y="20" width="150" height="266" as="geometry" />
        </mxCell>
        <mxCell id="yZVFHKXi4NmOl1lv1mpV-213" value="+ bucket: *Bucket" style="text;strokeColor=none;fillColor=none;align=left;verticalAlign=top;spacingLeft=4;spacingRight=4;overflow=hidden;rotatable=0;points=[[0,0.5],[1,0.5]];portConstraint=eastwest;whiteSpace=wrap;html=1;" vertex="1" parent="yZVFHKXi4NmOl1lv1mpV-212">
          <mxGeometry y="26" width="150" height="30" as="geometry" />
        </mxCell>
        <mxCell id="yZVFHKXi4NmOl1lv1mpV-214" value="+ isLeaf: bool" style="text;strokeColor=none;fillColor=none;align=left;verticalAlign=top;spacingLeft=4;spacingRight=4;overflow=hidden;rotatable=0;points=[[0,0.5],[1,0.5]];portConstraint=eastwest;whiteSpace=wrap;html=1;" vertex="1" parent="yZVFHKXi4NmOl1lv1mpV-212">
          <mxGeometry y="56" width="150" height="30" as="geometry" />
        </mxCell>
        <mxCell id="yZVFHKXi4NmOl1lv1mpV-215" value="+ unbalanced: bool" style="text;strokeColor=none;fillColor=none;align=left;verticalAlign=top;spacingLeft=4;spacingRight=4;overflow=hidden;rotatable=0;points=[[0,0.5],[1,0.5]];portConstraint=eastwest;whiteSpace=wrap;html=1;" vertex="1" parent="yZVFHKXi4NmOl1lv1mpV-212">
          <mxGeometry y="86" width="150" height="30" as="geometry" />
        </mxCell>
        <mxCell id="yZVFHKXi4NmOl1lv1mpV-220" value="+ spilled: bool" style="text;strokeColor=none;fillColor=none;align=left;verticalAlign=top;spacingLeft=4;spacingRight=4;overflow=hidden;rotatable=0;points=[[0,0.5],[1,0.5]];portConstraint=eastwest;whiteSpace=wrap;html=1;" vertex="1" parent="yZVFHKXi4NmOl1lv1mpV-212">
          <mxGeometry y="116" width="150" height="30" as="geometry" />
        </mxCell>
        <mxCell id="yZVFHKXi4NmOl1lv1mpV-219" value="+ key: []byte" style="text;strokeColor=none;fillColor=none;align=left;verticalAlign=top;spacingLeft=4;spacingRight=4;overflow=hidden;rotatable=0;points=[[0,0.5],[1,0.5]];portConstraint=eastwest;whiteSpace=wrap;html=1;" vertex="1" parent="yZVFHKXi4NmOl1lv1mpV-212">
          <mxGeometry y="146" width="150" height="30" as="geometry" />
        </mxCell>
        <mxCell id="yZVFHKXi4NmOl1lv1mpV-218" value="pgid: pgid" style="text;strokeColor=none;fillColor=none;align=left;verticalAlign=top;spacingLeft=4;spacingRight=4;overflow=hidden;rotatable=0;points=[[0,0.5],[1,0.5]];portConstraint=eastwest;whiteSpace=wrap;html=1;" vertex="1" parent="yZVFHKXi4NmOl1lv1mpV-212">
          <mxGeometry y="176" width="150" height="30" as="geometry" />
        </mxCell>
        <mxCell id="yZVFHKXi4NmOl1lv1mpV-217" value="parent: *node" style="text;strokeColor=none;fillColor=none;align=left;verticalAlign=top;spacingLeft=4;spacingRight=4;overflow=hidden;rotatable=0;points=[[0,0.5],[1,0.5]];portConstraint=eastwest;whiteSpace=wrap;html=1;" vertex="1" parent="yZVFHKXi4NmOl1lv1mpV-212">
          <mxGeometry y="206" width="150" height="30" as="geometry" />
        </mxCell>
        <mxCell id="yZVFHKXi4NmOl1lv1mpV-216" value="inodes: inodes ([]inode)" style="text;strokeColor=none;fillColor=none;align=left;verticalAlign=top;spacingLeft=4;spacingRight=4;overflow=hidden;rotatable=0;points=[[0,0.5],[1,0.5]];portConstraint=eastwest;whiteSpace=wrap;html=1;" vertex="1" parent="yZVFHKXi4NmOl1lv1mpV-212">
          <mxGeometry y="236" width="150" height="30" as="geometry" />
        </mxCell>
        <mxCell id="yZVFHKXi4NmOl1lv1mpV-221" value="inode" style="swimlane;fontStyle=0;childLayout=stackLayout;horizontal=1;startSize=26;fillColor=none;horizontalStack=0;resizeParent=1;resizeParentMax=0;resizeLast=0;collapsible=1;marginBottom=0;whiteSpace=wrap;html=1;" vertex="1" parent="1">
          <mxGeometry x="10" y="294" width="150" height="146" as="geometry" />
        </mxCell>
        <mxCell id="yZVFHKXi4NmOl1lv1mpV-222" value="+ flags: uint32" style="text;strokeColor=none;fillColor=none;align=left;verticalAlign=top;spacingLeft=4;spacingRight=4;overflow=hidden;rotatable=0;points=[[0,0.5],[1,0.5]];portConstraint=eastwest;whiteSpace=wrap;html=1;" vertex="1" parent="yZVFHKXi4NmOl1lv1mpV-221">
          <mxGeometry y="26" width="150" height="30" as="geometry" />
        </mxCell>
        <mxCell id="yZVFHKXi4NmOl1lv1mpV-223" value="+ pgid: pgid" style="text;strokeColor=none;fillColor=none;align=left;verticalAlign=top;spacingLeft=4;spacingRight=4;overflow=hidden;rotatable=0;points=[[0,0.5],[1,0.5]];portConstraint=eastwest;whiteSpace=wrap;html=1;" vertex="1" parent="yZVFHKXi4NmOl1lv1mpV-221">
          <mxGeometry y="56" width="150" height="30" as="geometry" />
        </mxCell>
        <mxCell id="yZVFHKXi4NmOl1lv1mpV-224" value="+ key: []byte" style="text;strokeColor=none;fillColor=none;align=left;verticalAlign=top;spacingLeft=4;spacingRight=4;overflow=hidden;rotatable=0;points=[[0,0.5],[1,0.5]];portConstraint=eastwest;whiteSpace=wrap;html=1;" vertex="1" parent="yZVFHKXi4NmOl1lv1mpV-221">
          <mxGeometry y="86" width="150" height="30" as="geometry" />
        </mxCell>
        <mxCell id="yZVFHKXi4NmOl1lv1mpV-225" value="+ value: []byte" style="text;strokeColor=none;fillColor=none;align=left;verticalAlign=top;spacingLeft=4;spacingRight=4;overflow=hidden;rotatable=0;points=[[0,0.5],[1,0.5]];portConstraint=eastwest;whiteSpace=wrap;html=1;" vertex="1" parent="yZVFHKXi4NmOl1lv1mpV-221">
          <mxGeometry y="116" width="150" height="30" as="geometry" />
        </mxCell>
        <mxCell id="yZVFHKXi4NmOl1lv1mpV-226" value="" style="curved=1;endArrow=classic;html=1;rounded=0;exitX=0.04;exitY=1.075;exitDx=0;exitDy=0;exitPerimeter=0;entryX=0.433;entryY=1.137;entryDx=0;entryDy=0;entryPerimeter=0;dashed=1;dashPattern=1 4;" edge="1" parent="1" source="yZVFHKXi4NmOl1lv1mpV-91" target="yZVFHKXi4NmOl1lv1mpV-225">
          <mxGeometry width="50" height="50" relative="1" as="geometry">
            <mxPoint x="110" y="540" as="sourcePoint" />
            <mxPoint x="160" y="490" as="targetPoint" />
            <Array as="points">
              <mxPoint x="230" y="510" />
              <mxPoint x="110" y="480" />
            </Array>
          </mxGeometry>
        </mxCell>
        <mxCell id="yZVFHKXi4NmOl1lv1mpV-227" value="" style="endArrow=none;html=1;rounded=0;exitX=0.125;exitY=1.001;exitDx=0;exitDy=0;exitPerimeter=0;" edge="1" parent="1">
          <mxGeometry width="50" height="50" relative="1" as="geometry">
            <mxPoint x="406.99999999999994" y="764.08" as="sourcePoint" />
            <mxPoint x="407" y="724" as="targetPoint" />
          </mxGeometry>
        </mxCell>
        <mxCell id="yZVFHKXi4NmOl1lv1mpV-228" value="" style="endArrow=none;html=1;rounded=0;exitX=0.125;exitY=1.001;exitDx=0;exitDy=0;exitPerimeter=0;" edge="1" parent="1">
          <mxGeometry width="50" height="50" relative="1" as="geometry">
            <mxPoint x="444.99999999999994" y="764.08" as="sourcePoint" />
            <mxPoint x="445" y="724" as="targetPoint" />
          </mxGeometry>
        </mxCell>
        <mxCell id="yZVFHKXi4NmOl1lv1mpV-229" value="" style="endArrow=none;html=1;rounded=0;exitX=0.125;exitY=1.001;exitDx=0;exitDy=0;exitPerimeter=0;" edge="1" parent="1">
          <mxGeometry width="50" height="50" relative="1" as="geometry">
            <mxPoint x="500.99999999999994" y="764.08" as="sourcePoint" />
            <mxPoint x="501" y="724" as="targetPoint" />
          </mxGeometry>
        </mxCell>
      </root>
    </mxGraphModel>
  </diagram>
</mxfile>
